<svg width="40" height="40" viewBox="0 0 40 40" fill="none" xmlns="http://www.w3.org/2000/svg">
<path d="M19.9831 2.5874C21.0046 2.5874 22.0041 2.73663 22.7575 3.01807L31.0749 6.13525H31.0759C33.2954 6.96202 35.0505 9.50761 35.0505 11.8667V24.2495C35.0505 25.3367 34.7063 26.5895 34.1237 27.7485C33.5777 28.8348 32.8403 29.8024 32.0309 30.4556L31.8679 30.5825L24.7009 35.9321L24.695 35.937C23.4123 36.9261 21.7237 37.4331 19.9997 37.4331C18.277 37.433 16.5846 36.9263 15.2643 35.9478H15.2634L8.0993 30.5991C7.2266 29.9484 6.42526 28.9208 5.84247 27.7593C5.25962 26.5976 4.91669 25.3447 4.91669 24.2661V11.8667C4.91669 9.50749 6.67163 6.96189 8.8913 6.13525H8.89227L17.2087 3.01807C17.9621 2.73655 18.9615 2.58743 19.9831 2.5874ZM20.0007 4.08545C19.2021 4.08763 18.3752 4.19487 17.7419 4.43115L17.7409 4.43213L9.4245 7.54834H9.42352C8.59602 7.85993 7.85479 8.52245 7.32391 9.29053C6.79283 10.0589 6.43329 10.9898 6.43329 11.8833V24.2661C6.43329 25.1606 6.74387 26.1893 7.20087 27.1011C7.65775 28.0126 8.29311 28.8726 9.00067 29.4009L16.1677 34.7505C17.2295 35.5444 18.6281 35.9252 20.0016 35.9253C21.3755 35.9253 22.7779 35.5442 23.8474 34.7515L23.8493 34.7505L31.0153 29.4009L31.0163 29.3999C31.731 28.8638 32.3666 28.0049 32.822 27.0942C33.2773 26.1836 33.5837 25.1596 33.5837 24.2661V11.8667C33.5837 10.9807 33.2233 10.0539 32.6931 9.28662C32.1625 8.51907 31.422 7.85386 30.5974 7.53369L30.5925 7.53174L22.2751 4.41455L22.2663 4.41162C21.6282 4.18643 20.8001 4.08327 20.0007 4.08545Z" fill="#FAFAFA" stroke="#FAFAFA"/>
<path d="M24.4039 14.77C24.692 14.4822 25.1755 14.482 25.4635 14.77C25.7514 15.058 25.7513 15.5415 25.4635 15.8296L18.2965 22.9966C18.1452 23.1478 17.9574 23.2163 17.7662 23.2163C17.5752 23.2162 17.3881 23.1477 17.2369 22.9966L14.5533 20.313C14.2655 20.0249 14.2654 19.5414 14.5533 19.2534C14.8414 18.9654 15.3248 18.9655 15.6129 19.2534L17.7662 21.4067L18.1207 21.0532L24.4039 14.77Z" fill="#FAFAFA" stroke="#FAFAFA"/>
</svg>
